<svg width="21" height="21" viewBox="0 0 21 21" fill="none" xmlns="http://www.w3.org/2000/svg">
<path fill-rule="evenodd" clip-rule="evenodd" d="M20.4844 10.2891C20.4844 15.8119 16.0072 20.2891 10.4844 20.2891C4.96153 20.2891 0.484375 15.8119 0.484375 10.2891C0.484375 4.76621 4.96153 0.289062 10.4844 0.289062C16.0072 0.289062 20.4844 4.76621 20.4844 10.2891ZM10.4844 4.66406C10.4844 4.31888 10.2046 4.03906 9.85938 4.03906C9.5142 4.03906 9.23438 4.31888 9.23438 4.66406V11.5391C9.23438 11.7633 9.35455 11.9704 9.54929 12.0817L13.9243 14.5817C14.224 14.753 14.6058 14.6488 14.777 14.3491C14.9483 14.0495 14.8442 13.6677 14.5445 13.4964L10.4844 11.1764V4.66406Z" fill="white"/>
</svg>
