<svg width="21" height="21" viewBox="0 0 21 21" fill="none" xmlns="http://www.w3.org/2000/svg">
<path fill-rule="evenodd" clip-rule="evenodd" d="M2.84034 0.927907C3.76798 0.000264287 5.29874 0.095566 6.10416 1.13111L8.34629 4.01385C8.75775 4.54286 8.90315 5.23167 8.7406 5.88184L8.05652 8.61818C7.9843 8.90706 8.06894 9.21266 8.2795 9.42321L11.3502 12.4939C11.5608 12.7045 11.8664 12.7891 12.1553 12.7169L14.8916 12.0328C15.5418 11.8703 16.2306 12.0157 16.7596 12.4271L19.6423 14.6693C20.6779 15.4747 20.7732 17.0055 19.8455 17.9331L18.5531 19.2255C17.6285 20.1502 16.2455 20.5562 14.9566 20.103C11.7563 18.9779 8.75235 17.1358 6.19499 14.5784C3.63762 12.0211 1.79556 9.01713 0.670423 5.81687C0.217272 4.52797 0.623288 3.14496 1.54794 2.22031L2.84034 0.927907Z" fill="white"/>
</svg>
